<svg width="159" height="19" viewBox="0 0 159 19" fill="none" xmlns="http://www.w3.org/2000/svg">
<path d="M6.8 1.152C8.576 1.152 10.128 1.504 11.456 2.208C12.784 2.912 13.808 3.904 14.528 5.184C15.264 6.448 15.632 7.912 15.632 9.576C15.632 11.224 15.264 12.688 14.528 13.968C13.808 15.248 12.776 16.24 11.432 16.944C10.104 17.648 8.56 18 6.8 18H0.488V1.152H6.8ZM6.536 14.448C8.088 14.448 9.296 14.024 10.16 13.176C11.024 12.328 11.456 11.128 11.456 9.576C11.456 8.024 11.024 6.816 10.16 5.952C9.296 5.088 8.088 4.656 6.536 4.656H4.592V14.448H6.536ZM28.4135 15.024H22.1255L21.1175 18H16.8215L22.9175 1.152H27.6695L33.7655 18H29.4215L28.4135 15.024ZM27.3575 11.856L25.2695 5.688L23.2055 11.856H27.3575ZM41.7168 18.168C40.4848 18.168 39.3808 17.968 38.4048 17.568C37.4288 17.168 36.6448 16.576 36.0528 15.792C35.4768 15.008 35.1728 14.064 35.1408 12.96H39.5088C39.5728 13.584 39.7888 14.064 40.1568 14.4C40.5248 14.72 41.0048 14.88 41.5968 14.88C42.2048 14.88 42.6848 14.744 43.0368 14.472C43.3888 14.184 43.5648 13.792 43.5648 13.296C43.5648 12.88 43.4208 12.536 43.1328 12.264C42.8608 11.992 42.5168 11.768 42.1008 11.592C41.7008 11.416 41.1248 11.216 40.3728 10.992C39.2848 10.656 38.3968 10.32 37.7088 9.984C37.0208 9.648 36.4288 9.152 35.9328 8.496C35.4368 7.84 35.1888 6.984 35.1888 5.928C35.1888 4.36 35.7568 3.136 36.8928 2.256C38.0288 1.36 39.5088 0.912 41.3328 0.912C43.1888 0.912 44.6848 1.36 45.8208 2.256C46.9568 3.136 47.5648 4.368 47.6448 5.952H43.2048C43.1728 5.408 42.9728 4.984 42.6048 4.68C42.2368 4.36 41.7648 4.2 41.1888 4.2C40.6928 4.2 40.2928 4.336 39.9888 4.608C39.6848 4.864 39.5328 5.24 39.5328 5.736C39.5328 6.28 39.7888 6.704 40.3008 7.008C40.8128 7.312 41.6128 7.64 42.7008 7.992C43.7888 8.36 44.6688 8.712 45.3408 9.048C46.0288 9.384 46.6208 9.872 47.1168 10.512C47.6128 11.152 47.8608 11.976 47.8608 12.984C47.8608 13.944 47.6128 14.816 47.1168 15.6C46.6368 16.384 45.9328 17.008 45.0048 17.472C44.0768 17.936 42.9808 18.168 41.7168 18.168ZM64.9784 1.152V18H60.8744V11.064H54.4904V18H50.3864V1.152H54.4904V7.752H60.8744V1.152H64.9784ZM78.4291 15.024H72.1411L71.1331 18H66.8371L72.9331 1.152H77.6851L83.7811 18H79.4371L78.4291 15.024ZM77.3731 11.856L75.2851 5.688L73.2211 11.856H77.3731ZM96.6044 1.152V4.44H89.7404V7.992H94.8764V11.184H89.7404V18H85.6364V1.152H96.6044ZM106.729 18.168C105.145 18.168 103.689 17.8 102.361 17.064C101.049 16.328 100.001 15.304 99.2174 13.992C98.4494 12.664 98.0654 11.176 98.0654 9.528C98.0654 7.88 98.4494 6.4 99.2174 5.088C100.001 3.776 101.049 2.752 102.361 2.016C103.689 1.28 105.145 0.912 106.729 0.912C108.313 0.912 109.761 1.28 111.073 2.016C112.401 2.752 113.441 3.776 114.193 5.088C114.961 6.4 115.345 7.88 115.345 9.528C115.345 11.176 114.961 12.664 114.193 13.992C113.425 15.304 112.385 16.328 111.073 17.064C109.761 17.8 108.313 18.168 106.729 18.168ZM106.729 14.424C108.073 14.424 109.145 13.976 109.945 13.08C110.761 12.184 111.169 11 111.169 9.528C111.169 8.04 110.761 6.856 109.945 5.976C109.145 5.08 108.073 4.632 106.729 4.632C105.369 4.632 104.281 5.072 103.465 5.952C102.665 6.832 102.265 8.024 102.265 9.528C102.265 11.016 102.665 12.208 103.465 13.104C104.281 13.984 105.369 14.424 106.729 14.424ZM125.597 18.168C124.013 18.168 122.557 17.8 121.229 17.064C119.917 16.328 118.869 15.304 118.085 13.992C117.317 12.664 116.933 11.176 116.933 9.528C116.933 7.88 117.317 6.4 118.085 5.088C118.869 3.776 119.917 2.752 121.229 2.016C122.557 1.28 124.013 0.912 125.597 0.912C127.181 0.912 128.629 1.28 129.941 2.016C131.269 2.752 132.309 3.776 133.061 5.088C133.829 6.4 134.213 7.88 134.213 9.528C134.213 11.176 133.829 12.664 133.061 13.992C132.293 15.304 131.253 16.328 129.941 17.064C128.629 17.8 127.181 18.168 125.597 18.168ZM125.597 14.424C126.941 14.424 128.013 13.976 128.813 13.08C129.629 12.184 130.037 11 130.037 9.528C130.037 8.04 129.629 6.856 128.813 5.976C128.013 5.08 126.941 4.632 125.597 4.632C124.237 4.632 123.149 5.072 122.333 5.952C121.533 6.832 121.133 8.024 121.133 9.528C121.133 11.016 121.533 12.208 122.333 13.104C123.149 13.984 124.237 14.424 125.597 14.424ZM142.808 1.152C144.584 1.152 146.136 1.504 147.464 2.208C148.792 2.912 149.816 3.904 150.536 5.184C151.272 6.448 151.64 7.912 151.64 9.576C151.64 11.224 151.272 12.688 150.536 13.968C149.816 15.248 148.784 16.24 147.44 16.944C146.112 17.648 144.568 18 142.808 18H136.496V1.152H142.808ZM142.544 14.448C144.096 14.448 145.304 14.024 146.168 13.176C147.032 12.328 147.464 11.128 147.464 9.576C147.464 8.024 147.032 6.816 146.168 5.952C145.304 5.088 144.096 4.656 142.544 4.656H140.6V14.448H142.544ZM155.853 18.192C155.133 18.192 154.541 17.984 154.077 17.568C153.629 17.136 153.405 16.608 153.405 15.984C153.405 15.344 153.629 14.808 154.077 14.376C154.541 13.944 155.133 13.728 155.853 13.728C156.557 13.728 157.133 13.944 157.581 14.376C158.045 14.808 158.277 15.344 158.277 15.984C158.277 16.608 158.045 17.136 157.581 17.568C157.133 17.984 156.557 18.192 155.853 18.192Z" fill="#1F7352"/>
</svg>
